<?xml version="1.0" standalone="no"?>
<!DOCTYPE svg PUBLIC "-//W3C//DTD SVG 1.1//EN" "http://www.w3.org/Graphics/SVG/1.1/DTD/svg11.dtd">
<svg xmlns="http://www.w3.org/2000/svg" xmlns:xlink="http://www.w3.org/1999/xlink" version="1.1" x="0px" y="0px" viewBox="0 0 1000 1000" enable-background="new 0 0 1000 1000" xml:space="preserve" width="1000" height="1000">
<metadata> Svg Vector Icons : http://www.onlinewebfonts.com/icon </metadata>
<g><g transform="translate(0.000000,512.000000) scale(0.100000,-0.100000)"><path d="M8122.2,4269.4l-755.6-757.5l13.4-120.8c5.8-67.1,17.2-193.7,23-283.8l11.5-163L6217.9,1751.4L5023.2,560.5l-143.8-7.7c-163-9.6-262.7-51.8-362.4-153.4c-203.3-201.4-209-550.4-15.3-749.8c107.4-109.3,207.1-153.4,364.4-163c163-9.6,276.2,28.8,393.1,138.1C5378-266,5420.2-172,5431.7,0.6l7.7,143.8l1190.9,1194.7l1192.8,1196.7l172.6-11.5c95.9-5.8,222.4-17.3,283.8-23l113.2-13.4l759.4,759.4c418,418.1,753.7,765.2,747.9,772.8c-7.7,5.8-178.3,53.7-381.6,103.6c-201.4,51.8-379.7,105.5-395.1,120.8c-15.3,15.4-61.4,164.9-103.5,331.8c-109.3,437.2-113.2,448.7-128.5,448.7C8883.6,5024.9,8536.5,4685.5,8122.2,4269.4z"/><path d="M4304.1,4785.2C2574.3,4570.4,1078.5,3414.1,434.2,1793.6c-163-410.4-251.2-759.4-312.6-1236.9c-28.8-234-28.8-836.1,0-1083.5C296.1-1944,1061.2-3196.2,2233-3976.7c1162.1-774.7,2592.7-1004.9,3937-636.7c1539.9,423.8,2778.8,1601.3,3279.3,3118.2C9625.7-966,9692.8-542.1,9692.8,33.2c0,663.5-120.8,1259.9-381.6,1877.4c-113.1,262.7-264.6,544.6-295.3,544.6c-28.8,0-397-366.3-397-395c0-13.4,47.9-120.8,105.5-241.6c180.3-375.9,316.4-841.9,375.9-1290.6c32.6-253.1,28.8-818.9-11.5-1083.5c-90.1-627.1-320.3-1236.9-655.9-1745.1C7756-3322.8,6718.5-3982.5,5493.1-4174.3c-324.1-49.9-924.3-46-1246.5,9.6c-634.8,107.4-1173.6,316.4-1679.9,652C1049.7-2505.9,344-664.9,802.4,1093.7c257,991.5,891.7,1871.7,1775.8,2462.3c234,157.3,680.8,374,960.8,467.9c494.8,164.9,832.3,218.6,1359.6,218.6c663.5,1.9,1223.5-122.7,1800.7-398.9c118.9-57.5,226.3-103.6,237.8-103.6c28.8,0,397,368.2,397,395c0,32.6-278.1,184.1-546.5,297.2c-427.6,180.3-836.1,291.5-1300.2,352.9C5211.2,4819.7,4593.7,4819.7,4304.1,4785.2z"/><path d="M4534.2,3153.3c-845.7-105.5-1626.2-552.3-2144-1223.5c-316.4-412.3-548.5-970.4-617.5-1488.1c-28.8-209-28.8-634.7,0-843.8c195.6-1472.8,1417.2-2619.6,2895.7-2719.3c855.3-57.5,1658.8,210.9,2301.2,767.1c512,444.9,866.8,1056.6,1020.2,1760.4c36.4,174.5,42.2,257,42.2,613.7c0,464.1-24.9,636.7-155.4,1016.4c-80.5,235.9-243.6,571.5-285.7,588.7c-21.1,7.7-90.1-47.9-222.5-180.3l-193.7-193.7l88.2-207.1c155.4-374,207.1-627.1,207.1-1014.5c0-435.3-86.3-809.3-272.3-1173.6C6547.8-2421.5,4990.6-2929.7,3723-2277.7C2662.5-1733,2106.4-524.9,2388.3,623.8c245.5,1001,1075.8,1775.8,2078.8,1936.9c496.7,80.6,1008.7,17.3,1474.7-184.1c118.9-49.9,180.3-67.1,201.4-55.6c17.2,9.6,107.4,94,201.4,187.9c115.1,118.9,166.8,182.2,159.2,203.3c-17.3,42.2-368.2,214.8-596.4,289.6c-345.2,115.1-535,145.7-941.6,153.4C4766.2,3159,4570.6,3157.1,4534.2,3153.3z"/><path d="M4620.5,1563.5c-310.7-57.5-563.8-186-788.2-398.9c-186-176.4-308.8-349-391.2-558.1C3011.6-465.4,3840-1616,4990.6-1547c234,13.4,423.8,67.1,646.3,182.2c140,72.9,207.1,122.7,354.8,272.3c99.7,99.7,211,232,247.4,291.5c187.9,322.2,262.7,686.5,212.9,1035.6c-36.4,264.6-30.7,264.6-308.8-17.3c-228.2-232-243.6-251.2-257-341.3c-46-316.4-268.5-619.4-552.3-755.6c-155.3-72.9-257-95.9-435.3-97.8c-276.1,0-512,95.9-705.7,291.5c-195.6,193.7-291.5,425.7-291.5,696.1c0,297.2,82.5,496.7,297.2,709.6c174.5,176.4,285.7,230.1,623.3,304.9c26.8,5.8,151.5,115.1,285.7,249.3l239.7,239.7l-51.8,19.2C5140.2,1592.3,4844.9,1605.7,4620.5,1563.5z"/></g></g>
</svg>